<svg xmlns="http://www.w3.org/2000/svg" version="1.1" xmlns:xlink="http://www.w3.org/1999/xlink" xmlns:svgjs="http://svgjs.dev/svgjs" width="1500" height="435" viewBox="0 0 1500 435"><g transform="matrix(1,0,0,1,-0.7220906133840117,-0.4220923968665886)"><svg viewBox="0 0 279 81" data-background-color="#f8f8f8" preserveAspectRatio="xMidYMid meet" height="435" width="1500" xmlns="http://www.w3.org/2000/svg" xmlns:xlink="http://www.w3.org/1999/xlink"><g id="tight-bounds" transform="matrix(1,0,0,1,0.13430885408942572,0.07859651527860478)"><svg viewBox="0 0 278.73138229182115 80.84280696944282" height="80.84280696944282" width="278.73138229182115"><g><svg viewBox="0 0 278.73138229182115 80.84280696944282" height="80.84280696944282" width="278.73138229182115"><g><svg viewBox="0 0 278.73138229182115 80.84280696944282" height="80.84280696944282" width="278.73138229182115"><g id="textblocktransform"><svg viewBox="0 0 278.73138229182115 80.84280696944282" height="80.84280696944282" width="278.73138229182115" id="textblock"><g><svg viewBox="0 0 278.73138229182115 56.9536" height="56.9536" width="278.73138229182115"><g><svg><g></g><g></g></svg></g><g><svg><g></g><g><svg></svg></g></svg></g><g id="text-0"><svg viewBox="0 0 278.73138229182115 56.9536" height="56.9536" width="278.73138229182115"><g><svg xmlns="http://www.w3.org/2000/svg" xmlns:xlink="http://www.w3.org/1999/xlink" version="1.1" x="0" y="0" viewBox="19.035364847430678 1.3373030508771087 61.84351249534367 97.36269694912289" enable-background="new 0 0 100 100" xml:space="preserve" height="56.9536" width="36.176182291821114" class="icon-dxe-0" data-fill-palette-color="accent" id="dxe-0"><path d="M20.1 52.1C20.7 54.4 22 58.8 24.8 61.4 25.7 64.8 27.4 68.5 29.8 71.8L38.8 94.5C39.8 97 42.2 98.7 44.9 98.7H54.9C57.6 98.7 60 97 61 94.5L70 71.8C72.5 68.5 74.2 64.8 75.1 61.4 77.9 58.8 79.1 54.4 79.8 52.1 80.8 48.4 81.9 43.1 79.1 39.4 79 39.3 78.9 39.1 78.8 39 80.1 32.8 82.5 15.3 69.2 7.1 69.2 7.1 72.1 4.8 71.9 1.4 71.9 1.4 56 3.2 48.3 1.6 40.7 0 32.5 6 31.1 11.7L30.9 11.9C29.5 12 17.4 13.3 20.7 35.2 20.8 36.4 20.9 37.6 21.2 38.9 21.1 39 21 39.2 20.9 39.3 18 43.1 19.1 48.4 20.1 52.1M55.4 76.4C53.6 77 51.8 77.4 49.9 77.4 48.1 77.4 46.2 77.1 44.5 76.5 39.4 74.7 35.6 71 33 66.8 34.6 68 36.8 69 40.1 69 45.3 69 48.6 67 50 65.1 51.4 67 54.7 69 59.9 69 63.1 69 65.3 68.1 66.9 66.9 64.3 70.9 60.4 74.6 55.4 76.4M27.2 41.8H27.6S29.3 19.2 47.6 27C57.2 31.1 64.3 30.9 68.9 29.8 74.7 33.8 73 40.5 72.7 41.6 72.7 41.7 72.7 41.7 72.6 41.8H73C74.9 41.8 76.8 43.3 74.7 50.6 73.1 56.3 71.6 57.9 70.4 58 70.1 59.6 69.6 61.4 68.9 63.1 68.3 63.4 67.3 63.7 66.1 63.7 62.9 63.7 60.3 59.6 55.8 59.6 54.5 59.6 52.7 59.8 50.1 61.6 47.5 59.7 45.7 59.6 44.4 59.6 39.9 59.6 37.3 63.7 34.1 63.7 32.8 63.7 31.9 63.4 31.2 63.1 30.5 61.4 30 59.6 29.7 58 28.6 57.9 27.1 56.3 25.4 50.6 23.3 43.3 25.3 41.8 27.2 41.8" fill="#c8c8c8" data-fill-palette-color="accent"></path></svg></g><g transform="matrix(1,0,0,1,49.62258229182112,0)"><svg width="229.10880000000003" viewBox="4.4 -34.55 141.59 35.199999999999996" height="56.9536" data-palette-color="#61777f"><path d="M4.4 0L4.4-34.1 8.6-34.1 8.6-18.35 22.9-34.1 28.15-34.1 15.05-19.8 30.15 0 24.9 0 12.15-16.7 8.6-12.8 8.6 0 4.4 0ZM30.8 0L40.65-17.35 30.8-34.1 35.55-34.1 43.6-20.25 51.6-34.1 56.35-34.1 46.25-16.95 56.4 0 51.55 0 43.35-14.25 35.55 0 30.8 0ZM61.74 0L61.74-34.1 69.59-34.1Q76.09-34.1 79.22-31.8 82.34-29.5 82.34-24.05L82.34-24.05Q82.34-21.05 81.19-19.05 80.05-17.05 78.32-15.83 76.59-14.6 74.59-14.08 72.59-13.55 70.89-13.55L70.89-13.55 65.94-13.55 65.94 0 61.74 0ZM65.94-30.35L65.94-17.3 70.55-17.3Q72.25-17.3 73.62-17.63 75-17.95 76-18.73 77-19.5 77.55-20.83 78.09-22.15 78.09-24.15L78.09-24.15Q78.09-26.15 77.52-27.38 76.94-28.6 75.82-29.25 74.69-29.9 73-30.13 71.3-30.35 69.05-30.35L69.05-30.35 65.94-30.35ZM95.89 0L95.89-30.2 85.19-30.2 85.19-34.1 110.79-34.1 110.79-30.2 100.09-30.2 100.09 0 95.89 0ZM113.09-17.05L113.09-17.05Q113.09-21.9 114.62-25.25 116.14-28.6 118.52-30.65 120.89-32.7 123.82-33.63 126.74-34.55 129.54-34.55L129.54-34.55Q132.34-34.55 135.27-33.77 138.19-33 140.56-31.03 142.94-29.05 144.47-25.65 145.99-22.25 145.99-17L145.99-17Q145.99-12.1 144.47-8.75 142.94-5.4 140.56-3.3 138.19-1.2 135.27-0.28 132.34 0.65 129.54 0.65L129.54 0.65Q126.74 0.65 123.82-0.25 120.89-1.15 118.52-3.2 116.14-5.25 114.62-8.65 113.09-12.05 113.09-17.05ZM141.24-16.8L141.24-16.8Q141.24-23.55 138.12-27.05 134.99-30.55 129.74-30.55L129.74-30.55Q127.09-30.55 124.92-29.73 122.74-28.9 121.17-27.25 119.59-25.6 118.72-23.13 117.84-20.65 117.84-17.3L117.84-17.3Q117.84-10.55 120.97-6.95 124.09-3.35 129.34-3.35L129.34-3.35Q131.94-3.35 134.14-4.17 136.34-5 137.92-6.7 139.49-8.4 140.37-10.9 141.24-13.4 141.24-16.8Z" opacity="1" transform="matrix(1,0,0,1,0,0)" fill="#61777f" class="wordmark-text-0" data-fill-palette-color="primary"></path></svg></g></svg></g></svg></g><g transform="matrix(1,0,0,1,53.23769401773784,70.3989780736)"><svg viewBox="0 0 172.25599425634547 10.443828895842813" height="10.443828895842813" width="172.25599425634547"><g transform="matrix(1,0,0,1,0,0)"><svg width="172.25599425634547" viewBox="1.4999999999999998 -41.25 705.05 42.75" height="10.443828895842813" data-palette-color="#000000"><path d="M32.2-12.7L32.2-12.7 32.2-37.6 28.15-38.1 28.15-39.95Q30.9-39.75 33.2-39.75L33.2-39.75Q35.1-39.75 38.3-39.9L38.3-39.9 38.3-38.1 35.15-37.5Q34.95-35.6 34.95-31.65L34.95-31.65 34.95-13Q34.75-5.9 31.6-2.45 28.45 1 20.55 1L20.55 1Q5.65 1 5.65-12.55L5.65-12.55 5.65-37.6 1.6-38.1Q1.4-38.85 1.6-39.95L1.6-39.95Q4.35-39.75 8.45-39.75L8.45-39.75Q12.1-39.75 15.35-39.9L15.35-39.9Q15.65-39 15.35-38.1L15.35-38.1 11.2-37.5Q11-35.6 11-31.65L11-31.65 11-12.55Q11-6.95 13.6-4.58 16.2-2.2 22.2-2.2L22.2-2.2Q27.85-2.2 30.03-4.67 32.2-7.15 32.2-12.7ZM81.1-8.15L81.1-8.15 81.1-36.9 66 1.5 64.7 1.5 50.15-35.65 50.15-8.15Q50.15-4.2 50.35-2.3L50.35-2.3 55-1.7Q55.3-0.8 55 0.1L55 0.1Q50.7 0 48.9 0L48.9 0Q45.9 0 42.85 0.15L42.85 0.15Q42.65-0.95 42.85-1.7L42.85-1.7 47.4-2.2 47.4-31.65Q47.4-35.6 47.2-37.5L47.2-37.5 43.05-38.1Q42.75-38.95 43.05-39.8L43.05-39.8 54.05-39.8 66.6-6.9 79.45-39.8Q80.6-39.75 82.95-39.75L82.95-39.75Q83.45-39.75 90.8-39.9L90.8-39.9Q91.1-39 90.8-38.1L90.8-38.1 86.65-37.5Q86.45-35.6 86.45-31.65L86.45-31.65 86.45-2.2 90.5-1.7Q90.7-0.95 90.5 0.15L90.5 0.15Q87.35 0 83.65 0L83.65 0Q80.95 0 76.75 0.1L76.75 0.1Q76.45-1.15 76.75-1.7L76.75-1.7 80.9-2.3Q81.1-4.2 81.1-8.15ZM138.14 0L114.94 0 107.79 0.15Q107.49-0.75 107.79-1.65L107.79-1.65 111.94-2.2Q112.14-4.75 112.14-8.1L112.14-8.1 112.14-37.6 108.09-38.1Q107.89-38.85 108.09-39.95L108.09-39.95Q110.84-39.75 114.94-39.75L114.94-39.75Q118.59-39.75 121.84-39.9L121.84-39.9Q122.14-39 121.84-38.1L121.84-38.1 117.69-37.5Q117.49-35.6 117.49-31.65L117.49-31.65 117.49-2.55 133.99-2.55 136.34-11.6Q137.09-11.8 138.19-11.6L138.19-11.6 138.14 0ZM171.14-12.7L171.14-12.7 171.14-37.6 167.09-38.1 167.09-39.95Q169.84-39.75 172.14-39.75L172.14-39.75Q174.04-39.75 177.24-39.9L177.24-39.9 177.24-38.1 174.09-37.5Q173.89-35.6 173.89-31.65L173.89-31.65 173.89-13Q173.69-5.9 170.54-2.45 167.39 1 159.49 1L159.49 1Q144.59 1 144.59-12.55L144.59-12.55 144.59-37.6 140.54-38.1Q140.34-38.85 140.54-39.95L140.54-39.95Q143.29-39.75 147.39-39.75L147.39-39.75Q151.04-39.75 154.29-39.9L154.29-39.9Q154.59-39 154.29-38.1L154.29-38.1 150.14-37.5Q149.94-35.6 149.94-31.65L149.94-31.65 149.94-12.55Q149.94-6.95 152.54-4.58 155.14-2.2 161.14-2.2L161.14-2.2Q166.79-2.2 168.97-4.67 171.14-7.15 171.14-12.7ZM213.79 0.9L213.79 0.9 212.49-3.2Q206.69 1 201.29 1L201.29 1Q196.39 1 192.74-0.78 189.09-2.55 186.69-5.48 184.29-8.4 183.11-12.13 181.94-15.85 181.94-19.75L181.94-19.75Q181.94-23.7 183.31-27.48 184.69-31.25 187.36-34.2 190.04-37.15 193.89-38.98 197.74-40.8 202.69-40.8L202.69-40.8Q209.59-40.8 215.39-37.8L215.39-37.8 215.39-28.2Q214.49-28.05 213.79-28.05L213.79-28.05Q213.04-28.05 212.54-28.2L212.54-28.2 210.94-36.55Q207.74-38.55 202.09-38.55L202.09-38.55Q198.94-38.55 196.39-37.13 193.84-35.7 191.99-33.27 190.14-30.85 189.14-27.58 188.14-24.3 188.14-20.6L188.14-20.6Q188.14-16.65 189.06-13.3 189.99-9.95 191.69-7.5 193.39-5.05 195.81-3.68 198.24-2.3 201.24-2.3L201.24-2.3Q206.09-2.3 210.79-4.95L210.79-4.95 210.79-15.6 206.74-16.1Q206.64-16.35 206.64-16.9L206.64-16.9Q206.64-17.15 206.64-17.4 206.64-17.65 206.74-17.95L206.74-17.95Q208.14-17.85 209.81-17.8 211.49-17.75 213.59-17.75L213.59-17.75Q217.24-17.75 220.49-17.9L220.49-17.9Q220.64-17.45 220.64-17L220.64-17Q220.64-16.55 220.49-16.1L220.49-16.1 216.34-15.5Q216.24-14.55 216.19-13.1 216.14-11.65 216.14-9.65L216.14-9.65 216.14-4.6 215.64 0.9Q215.44 1 215.24 1 215.04 1 214.79 1L214.79 1Q214.54 1 214.29 1 214.04 1 213.79 0.9ZM232.19-14.65L227.73-2.2 231.78-1.7Q231.98-0.95 231.78 0.15L231.78 0.15Q228.63 0 226.48 0L226.48 0Q225.28 0 221.08 0.1L221.08 0.1Q220.78-0.8 221.08-1.7L221.08-1.7 224.38-2.3Q225.19-3.5 226.38-6.75L226.38-6.75 239.28-41.25 241.03-41.25 255.53-2.2 259.58-1.7Q259.78-0.95 259.58 0.15L259.58 0.15Q256.44 0 252.53 0L252.53 0Q249.63 0 245.44 0.1L245.44 0.1Q245.13-0.8 245.44-1.7L245.44-1.7 249.58-2.3 245.19-14.65 232.19-14.65ZM238.83-33.7L238.83-33.7 238.78-33.7Q238.19-31.35 236.83-27.55L236.83-27.55 233.08-17.15 244.28-17.15 240.63-27.55Q239.58-30.6 238.83-33.7ZM261.23-39.95L261.23-39.95Q263.28-39.95 267.76-40.15 272.23-40.35 275.88-40.35L275.88-40.35Q283.48-40.35 286.73-37.33 289.98-34.3 289.98-28.9L289.98-28.9Q289.98-25.65 287.73-23.05 285.48-20.45 281.83-19.15L281.83-19.15Q283.98-15.5 285.86-12.3 287.73-9.1 288.58-7.55 289.43-6 290.13-4.78 290.83-3.55 291.16-3.1 291.48-2.65 291.78-2.35L291.78-2.35 295.38-1.85Q295.58-1.1 295.38 0L295.38 0 286.88 0 279.33-13.7Q277.83-16.55 276.48-18.1L276.48-18.1 275.78-18.1Q273.23-18.1 270.63-18.4L270.63-18.4 270.63-2.2 275.18-1.7Q275.38-0.95 275.18 0.15L275.18 0.15Q272.03 0 268.08 0L268.08 0Q265.13 0 260.93 0.1L260.93 0.1Q260.63-0.8 260.93-1.7L260.93-1.7 265.08-2.3Q265.28-4.2 265.28-8.15L265.28-8.15 265.28-37.6 261.23-38.1Q261.03-38.85 261.23-39.95ZM270.63-31.65L270.63-31.65 270.63-20.45Q272.18-20.25 275.13-20.25L275.13-20.25Q277.68-20.25 279.51-21.08 281.33-21.9 282.23-23.28 283.13-24.65 283.53-26.1 283.93-27.55 283.93-29.15L283.93-29.15Q283.93-33.45 281.78-35.85 279.63-38.25 274.63-38.25L274.63-38.25Q272.78-38.25 270.93-37.9L270.93-37.9Q270.63-35.05 270.63-31.65ZM309.53-39.95L309.53-39.95Q311.58-39.95 316.05-40.15 320.53-40.35 324.18-40.35L324.18-40.35Q331.93-40.35 335.23-37.33 338.53-34.3 338.53-28.9L338.53-28.9Q338.53-24.1 334.25-20.85 329.98-17.6 324.08-17.6L324.08-17.6Q321.03-17.6 318.93-17.9L318.93-17.9 318.93-2.2 323.48-1.7Q323.68-0.95 323.48 0.15L323.48 0.15Q320.33 0 316.38 0L316.38 0Q313.43 0 309.23 0.1L309.23 0.1Q308.93-0.8 309.23-1.7L309.23-1.7 313.38-2.3Q313.58-4.2 313.58-8.15L313.58-8.15 313.58-37.6 309.53-38.1Q309.33-38.85 309.53-39.95ZM318.93-31.65L318.93-31.65 318.93-19.95Q320.48-19.75 323.43-19.75L323.43-19.75Q326.03-19.75 327.9-20.63 329.78-21.5 330.73-22.98 331.68-24.45 332.08-25.95 332.48-27.45 332.48-29.15L332.48-29.15Q332.48-33.5 330.28-35.88 328.08-38.25 322.93-38.25L322.93-38.25Q321.08-38.25 319.23-37.9L319.23-37.9Q318.93-35.05 318.93-31.65ZM347.03-14.65L342.58-2.2 346.63-1.7Q346.83-0.95 346.63 0.15L346.63 0.15Q343.48 0 341.33 0L341.33 0Q340.13 0 335.93 0.1L335.93 0.1Q335.63-0.8 335.93-1.7L335.93-1.7 339.23-2.3Q340.03-3.5 341.23-6.75L341.23-6.75 354.13-41.25 355.88-41.25 370.38-2.2 374.43-1.7Q374.63-0.95 374.43 0.15L374.43 0.15Q371.28 0 367.38 0L367.38 0Q364.48 0 360.28 0.1L360.28 0.1Q359.98-0.8 360.28-1.7L360.28-1.7 364.43-2.3 360.03-14.65 347.03-14.65ZM353.68-33.7L353.68-33.7 353.63-33.7Q353.03-31.35 351.68-27.55L351.68-27.55 347.93-17.15 359.13-17.15 355.48-27.55Q354.43-30.6 353.68-33.7ZM376.07-39.95L376.07-39.95Q378.12-39.95 382.6-40.15 387.07-40.35 390.72-40.35L390.72-40.35Q398.32-40.35 401.57-37.33 404.82-34.3 404.82-28.9L404.82-28.9Q404.82-25.65 402.57-23.05 400.32-20.45 396.67-19.15L396.67-19.15Q398.82-15.5 400.7-12.3 402.57-9.1 403.42-7.55 404.27-6 404.97-4.78 405.67-3.55 406-3.1 406.32-2.65 406.62-2.35L406.62-2.35 410.22-1.85Q410.42-1.1 410.22 0L410.22 0 401.72 0 394.17-13.7Q392.67-16.55 391.32-18.1L391.32-18.1 390.62-18.1Q388.07-18.1 385.47-18.4L385.47-18.4 385.47-2.2 390.02-1.7Q390.22-0.95 390.02 0.15L390.02 0.15Q386.87 0 382.92 0L382.92 0Q379.97 0 375.77 0.1L375.77 0.1Q375.47-0.8 375.77-1.7L375.77-1.7 379.92-2.3Q380.12-4.2 380.12-8.15L380.12-8.15 380.12-37.6 376.07-38.1Q375.87-38.85 376.07-39.95ZM385.47-31.65L385.47-31.65 385.47-20.45Q387.02-20.25 389.97-20.25L389.97-20.25Q392.52-20.25 394.35-21.08 396.17-21.9 397.07-23.28 397.97-24.65 398.37-26.1 398.77-27.55 398.77-29.15L398.77-29.15Q398.77-33.45 396.62-35.85 394.47-38.25 389.47-38.25L389.47-38.25Q387.62-38.25 385.77-37.9L385.77-37.9Q385.47-35.05 385.47-31.65ZM420.02-14.65L415.57-2.2 419.62-1.7Q419.82-0.95 419.62 0.15L419.62 0.15Q416.47 0 414.32 0L414.32 0Q413.12 0 408.92 0.1L408.92 0.1Q408.62-0.8 408.92-1.7L408.92-1.7 412.22-2.3Q413.02-3.5 414.22-6.75L414.22-6.75 427.12-41.25 428.87-41.25 443.37-2.2 447.42-1.7Q447.62-0.95 447.42 0.15L447.42 0.15Q444.27 0 440.37 0L440.37 0Q437.47 0 433.27 0.1L433.27 0.1Q432.97-0.8 433.27-1.7L433.27-1.7 437.42-2.3 433.02-14.65 420.02-14.65ZM426.67-33.7L426.67-33.7 426.62-33.7Q426.02-31.35 424.67-27.55L424.67-27.55 420.92-17.15 432.12-17.15 428.47-27.55Q427.42-30.6 426.67-33.7ZM470.77-21.85L490.47-21.85 490.47-37.6 486.42-38.1Q486.22-38.85 486.42-39.95L486.42-39.95Q489.17-39.75 493.27-39.75L493.27-39.75Q496.97-39.75 500.17-39.9L500.17-39.9Q500.47-39 500.17-38.1L500.17-38.1 496.02-37.5Q495.82-35.6 495.82-31.65L495.82-31.65 495.82-2.2 499.87-1.7Q500.07-0.95 499.87 0.15L499.87 0.15Q496.72 0 493.02 0L493.02 0Q490.32 0 486.12 0.1L486.12 0.1Q485.82-0.8 486.12-1.7L486.12-1.7 490.27-2.3Q490.47-4.2 490.47-8.15L490.47-8.15 490.47-19.35 470.77-19.35 470.77-2.2 474.82-1.7Q475.02-0.95 474.82 0.15L474.82 0.15Q471.67 0 467.97 0L467.97 0Q465.27 0 461.07 0.1L461.07 0.1Q460.77-0.8 461.07-1.7L461.07-1.7 465.22-2.3Q465.42-4.2 465.42-8.15L465.42-8.15 465.42-37.6 461.37-38.1Q461.17-38.85 461.37-39.95L461.37-39.95Q464.12-39.75 468.22-39.75L468.22-39.75Q471.87-39.75 475.12-39.9L475.12-39.9Q475.42-39 475.12-38.1L475.12-38.1 470.97-37.5Q470.77-35.6 470.77-31.65L470.77-31.65 470.77-21.85ZM524.61-40.8L524.61-40.8Q529.51-40.8 533.41-39.05 537.31-37.3 539.71-34.38 542.11-31.45 543.39-27.88 544.66-24.3 544.66-20.4L544.66-20.4Q544.66-11.4 539.01-5.2 533.36 1 524.61 1L524.61 1Q519.76 1 515.86-0.75 511.96-2.5 509.56-5.43 507.16-8.35 505.89-11.9 504.61-15.45 504.61-19.3L504.61-19.3Q504.61-25.05 507.14-29.95 509.66-34.85 514.29-37.83 518.91-40.8 524.61-40.8ZM524.56-1.75L524.56-1.75Q529.26-1.75 532.54-4.48 535.81-7.2 537.24-11.35 538.66-15.5 538.66-20.6L538.66-20.6Q538.66-25.45 537.24-29.28 535.81-33.1 532.56-35.58 529.31-38.05 524.56-38.05L524.56-38.05Q517.71-38.05 514.16-33.05 510.61-28.05 510.61-20.55L510.61-20.55Q510.61-15.4 512.01-11.28 513.41-7.15 516.66-4.45 519.91-1.75 524.56-1.75ZM587.21-8.15L587.21-8.15 587.21-36.9 572.11 1.5 570.81 1.5 556.26-35.65 556.26-8.15Q556.26-4.2 556.46-2.3L556.46-2.3 561.11-1.7Q561.41-0.8 561.11 0.1L561.11 0.1Q556.81 0 555.01 0L555.01 0Q552.01 0 548.96 0.15L548.96 0.15Q548.76-0.95 548.96-1.7L548.96-1.7 553.51-2.2 553.51-31.65Q553.51-35.6 553.31-37.5L553.31-37.5 549.16-38.1Q548.86-38.95 549.16-39.8L549.16-39.8 560.16-39.8 572.71-6.9 585.56-39.8Q586.71-39.75 589.06-39.75L589.06-39.75Q589.56-39.75 596.91-39.9L596.91-39.9Q597.21-39 596.91-38.1L596.91-38.1 592.76-37.5Q592.56-35.6 592.56-31.65L592.56-31.65 592.56-2.2 596.61-1.7Q596.81-0.95 596.61 0.15L596.61 0.15Q593.46 0 589.76 0L589.76 0Q587.06 0 582.86 0.1L582.86 0.1Q582.56-1.15 582.86-1.7L582.86-1.7 587.01-2.3Q587.21-4.2 587.21-8.15ZM605.96-8.1L605.96-8.1 605.96-37.6 601.91-38.15Q601.61-39.05 601.91-39.95L601.91-39.95 608.76-39.8 628.96-39.8 629.01-28.2Q627.91-28 627.16-28.2L627.16-28.2 624.81-37.25 611.31-37.25 611.31-22.25 619.31-22.4 620.46-27.3Q621.21-27.5 622.31-27.3L622.31-27.3Q622.11-24.5 622.11-20.85L622.11-20.85Q622.11-17.5 622.26-14.35L622.26-14.35Q621.36-14.05 620.46-14.35L620.46-14.35 619.36-19.55 611.31-19.7 611.31-2.55 626.31-2.55 628.66-11.6Q629.41-11.8 630.51-11.6L630.51-11.6 630.46 0 608.76 0 601.61 0.15Q601.31-0.75 601.61-1.65L601.61-1.65 605.76-2.2Q605.96-4.75 605.96-8.1ZM668.1-13.4L668.1-13.4 668.1-31.5Q668.1-35.45 667.9-37.35L667.9-37.35 663.25-37.95Q662.95-38.85 663.25-39.75L663.25-39.75Q666.4-39.6 669.35-39.6L669.35-39.6Q672.6-39.6 675.4-39.8L675.4-39.8Q675.6-38.7 675.4-37.95L675.4-37.95 670.85-37.45 670.85 0 668.2 0 646.15-29.85Q644.6-31.9 642.5-35.2L642.5-35.2Q642.75-32.9 642.75-29.65L642.75-29.65 642.75-8.15Q642.75-4.2 642.95-2.3L642.95-2.3 647.6-1.7Q647.9-0.8 647.6 0.1L647.6 0.1Q643.3 0 641.5 0L641.5 0Q638.55 0 635.45 0.15L635.45 0.15Q635.25-0.95 635.45-1.7L635.45-1.7 640-2.2 640-31.65Q640-35.6 639.8-37.5L639.8-37.5 635.65-38.1Q635.35-38.95 635.65-39.8L635.65-39.8 645.45-39.8 665.5-12.5Q665.9-11.95 666.38-11.2 666.85-10.45 667.43-9.4 668-8.35 668.35-7.8L668.35-7.8Q668.1-10.8 668.1-13.4ZM683.8-11.55L685.4-3.45Q688.3-1.45 693.55-1.45L693.55-1.45Q697.1-1.45 698.88-3.5 700.65-5.55 700.65-8.4L700.65-8.4Q700.65-9.9 700.4-10.93 700.15-11.95 699.33-13.25 698.5-14.55 696.7-15.85 694.9-17.15 692-18.6L692-18.6Q688.6-20.3 686.5-21.8 684.4-23.3 683.35-24.9 682.3-26.5 681.95-27.95 681.6-29.4 681.6-31.55L681.6-31.55Q681.6-35.95 685.13-38.38 688.65-40.8 693.45-40.8L693.45-40.8Q699.4-40.8 704.95-37.8L704.95-37.8 704.95-28.2Q703.25-27.9 702.1-28.2L702.1-28.2 700.5-36.85Q697.3-38.6 693.35-38.6L693.35-38.6Q690.7-38.6 688.88-37.02 687.05-35.45 687.05-32.6L687.05-32.6Q687.05-31 687.25-30.1 687.45-29.2 688.25-27.98 689.05-26.75 690.9-25.53 692.75-24.3 695.85-22.8L695.85-22.8Q706.55-17.6 706.55-10.4L706.55-10.4Q706.55-5.3 702.65-2.15 698.75 1 692.45 1L692.45 1Q686.2 1 680.95-1.95L680.95-1.95 680.95-11.55Q682.65-11.85 683.8-11.55L683.8-11.55Z" opacity="1" transform="matrix(1,0,0,1,0,0)" fill="#000000" class="slogan-text-1" data-fill-palette-color="secondary" id="text-1"></path></svg></g></svg></g></svg></g></svg></g></svg></g><defs></defs></svg><rect width="278.73138229182115" height="80.84280696944282" fill="none" stroke="none" visibility="hidden"></rect></g></svg></g></svg>